# xmcd
#
# Track frame offsets: 
#        182
#        6235
#        33337
#        56150
#        71085
#        86305
#        110802
#        125537
#        137322
#        145615
#        159812
#        178105
#        191370
#        205862
#        219527
#        232785
#        245807
#        261950
#
# Disc length: 3755 seconds
#
# Revision: 8
# Processed by: cddbd v1.5.2PL0 Copyright (c) Steve Scherf et al.
# Submitted via: ExactAudioCopy v0.95b4
#
DISCID=fa0ea912
DTITLE=SOUNDS OF BLACKNESS - the night before Christmas - a musical fa
DTITLE=ntasy
DYEAR=1992
DGENRE=Gospel
TTITLE0=Born In A Manger
TTITLE1=Soul Holiday
TTITLE2=It's Christmas Time
TTITLE3=Away In A Manger
TTITLE4=O Come All Ye Faithful
TTITLE5=O Holy Night
TTITLE6=Peace On Earth For Everyone
TTITLE7=Children Go
TTITLE8=Santa's comin' To Town
TTITLE9=Dance, Chilins, Dance
TTITLE10=Holiday Love
TTITLE11=Santa Won't You Come By
TTITLE12=The Jolly One's Here
TTITLE13=Dash Away All£¯Reindeer Revolt
TTITLE14=Give Us A Chance
TTITLE15=Santa Watch Yo' Step
TTITLE16=Why Don't You Believe In Me£¿
TTITLE17=Merry Christmas To The World
EXTD=YEAR: 1992
EXTT0=
EXTT1=
EXTT2=
EXTT3=
EXTT4=
EXTT5=
EXTT6=
EXTT7=
EXTT8=
EXTT9=
EXTT10=
EXTT11=
EXTT12=
EXTT13=
EXTT14=
EXTT15=
EXTT16=
EXTT17=
PLAYORDER=
